<svg id="_x31_px" enable-background="new 0 0 24 24" height="100" viewBox="0 0 24 24" width="512" xmlns="http://www.w3.org/2000/svg"><path d="m12 12c-.068 0-.136-.014-.199-.042l-11.5-5c-.183-.079-.301-.259-.301-.458s.118-.379.301-.458l11.5-5c.127-.056.271-.056.398 0l11.5 5c.183.079.301.259.301.458s-.118.379-.301.458l-11.5 5c-.063.028-.131.042-.199.042zm-10.246-5.5 10.246 4.455 10.246-4.455-10.246-4.455z"/><path d="m12 16c-.068 0-.136-.014-.199-.042l-11.5-5c-.183-.079-.301-.259-.301-.458s.118-.379.301-.458l4.6-2c.254-.11.547.005.658.259.11.253-.006.548-.259.658l-3.546 1.541 10.246 4.455 10.246-4.455-3.545-1.542c-.253-.11-.37-.405-.259-.658.11-.254.403-.37.658-.259l4.6 2c.182.08.3.26.3.459s-.118.379-.301.458l-11.5 5c-.063.028-.131.042-.199.042z"/><path d="m12 20c-.068 0-.136-.014-.199-.042l-11.5-5c-.183-.079-.301-.259-.301-.458s.118-.379.301-.458l4.6-2c.254-.11.547.006.658.259.11.253-.006.548-.259.658l-3.546 1.541 10.246 4.455 10.246-4.455-3.545-1.542c-.253-.11-.37-.405-.259-.658.11-.253.403-.371.658-.259l4.6 2c.182.08.3.26.3.459s-.118.379-.301.458l-11.5 5c-.063.028-.131.042-.199.042z"/><path d="m12 24c-.068 0-.136-.014-.199-.042l-11.5-5c-.183-.079-.301-.259-.301-.458s.118-.379.301-.458l4.6-2c.254-.111.547.006.658.259.11.253-.006.548-.259.658l-3.546 1.541 10.246 4.455 10.246-4.455-3.545-1.542c-.253-.11-.37-.405-.259-.658.11-.253.403-.371.658-.259l4.6 2c.182.08.3.26.3.459s-.118.379-.301.458l-11.5 5c-.063.028-.131.042-.199.042z"/></svg>